<?xml version="1.0" encoding="UTF-8"?>
<svg xmlns="http://www.w3.org/2000/svg" xmlns:xlink="http://www.w3.org/1999/xlink" width="400px" height="364px" viewBox="0 0 74 68" version="1.1">
<g id="surface1">
<path style=" stroke:none;fill-rule:nonzero;fill:rgb(0%,0%,0%);fill-opacity:1;" d="M 33.078125 11.367188 C 30.757812 11.863281 28.070312 13.234375 26.515625 14.730469 C 24.816406 16.375 23.828125 18.371094 23.261719 21.410156 C 22.914062 23.28125 22.765625 23.65625 22.445312 23.507812 C 22.25 23.40625 21.410156 23.28125 20.597656 23.230469 C 19.363281 23.15625 18.894531 23.257812 17.761719 23.855469 C 15.761719 24.902344 15.515625 25.476562 15.242188 29.886719 C 15.023438 33.675781 15.34375 41.054688 15.835938 43 C 16.179688 44.394531 17.070312 45.492188 18.574219 46.363281 C 20.03125 47.210938 21.335938 47.335938 22.472656 46.710938 C 22.890625 46.511719 23.261719 46.363281 23.308594 46.414062 C 23.359375 46.464844 23.484375 48.308594 23.582031 50.527344 C 23.730469 53.941406 23.804688 54.589844 24.148438 54.6875 C 26.789062 55.460938 31.769531 55.460938 34.1875 54.738281 L 35.445312 54.339844 L 35.59375 52.671875 C 35.691406 51.722656 35.765625 50.203125 35.765625 49.28125 L 35.765625 47.558594 L 37.9375 47.734375 C 39.121094 47.835938 40.109375 47.933594 40.15625 47.984375 C 40.183594 48.007812 40.28125 49.28125 40.378906 50.824219 C 40.453125 52.347656 40.652344 53.765625 40.796875 53.964844 C 41.167969 54.441406 45.335938 54.863281 47.605469 54.640625 L 49.433594 54.464844 L 49.902344 52.96875 C 50.148438 52.148438 50.738281 50.003906 51.183594 48.183594 C 52.171875 44.371094 52.539062 39.933594 52.417969 33.152344 C 52.367188 29.089844 52.367188 29.039062 53.007812 28.066406 C 53.847656 26.796875 54.019531 24.152344 53.429688 22.058594 C 52.960938 20.515625 51.332031 18.59375 50.222656 18.296875 C 49.800781 18.195312 49.433594 17.796875 49.085938 17.101562 C 48.816406 16.527344 47.953125 15.378906 47.164062 14.53125 C 45.683594 12.988281 44.425781 12.3125 41.441406 11.589844 C 39.394531 11.09375 34.929688 10.96875 33.078125 11.367188 Z M 39.835938 12.464844 C 42.277344 12.8125 44.546875 13.636719 45.535156 14.507812 C 46.570312 15.429688 47.953125 17.175781 47.78125 17.347656 C 47.730469 17.421875 46.621094 17.273438 45.363281 17.050781 C 43.414062 16.675781 42.699219 16.652344 40.945312 16.898438 C 38.132812 17.25 35.003906 18.222656 33.964844 19.019531 C 31.917969 20.589844 31.328125 24.054688 32.632812 26.597656 C 34.210938 29.664062 35.496094 30.535156 39.394531 31.183594 C 41.835938 31.582031 42.625 31.605469 44.621094 31.382812 C 46.792969 31.160156 49.753906 30.511719 50.910156 30.011719 C 51.378906 29.835938 51.378906 29.988281 51.234375 35.792969 C 51.035156 43.222656 50.441406 47.511719 49.0625 51.746094 C 48.691406 52.894531 48.421875 53.316406 48.027344 53.441406 C 46.890625 53.742188 42.203125 53.46875 41.808594 53.070312 C 41.761719 52.992188 41.636719 51.773438 41.539062 50.351562 L 41.367188 47.734375 L 43.191406 47.011719 C 45.238281 46.214844 45.632812 45.964844 45.632812 45.441406 C 45.632812 44.96875 44.894531 45.09375 42.425781 45.988281 C 40.675781 46.636719 40.429688 46.664062 37.839844 46.511719 C 36.160156 46.386719 35.027344 46.414062 34.929688 46.5625 C 34.855469 46.6875 34.707031 48.28125 34.632812 50.101562 C 34.433594 53.917969 34.65625 53.640625 31.277344 54.117188 C 29.648438 54.339844 28.785156 54.316406 27.132812 54.066406 L 25.035156 53.71875 L 24.886719 52.59375 C 24.789062 51.972656 24.59375 48.730469 24.421875 45.367188 C 24.273438 42 24.050781 37.863281 23.902344 36.167969 C 23.410156 29.363281 23.777344 22.980469 24.9375 19.519531 C 26.121094 15.902344 28.589844 13.785156 32.929688 12.589844 C 34.410156 12.1875 37.46875 12.140625 39.835938 12.464844 Z M 46.519531 18.421875 C 49.011719 18.945312 50.371094 19.542969 51.355469 20.613281 C 53.355469 22.734375 53.230469 26.648438 51.109375 28.464844 C 50.246094 29.1875 48.074219 29.789062 44.621094 30.234375 C 41.933594 30.585938 37.738281 29.988281 36.113281 29.039062 C 34.1875 27.917969 32.585938 24.402344 33.101562 22.507812 C 33.742188 20.117188 34.804688 19.316406 38.355469 18.546875 C 41.441406 17.847656 43.660156 17.824219 46.519531 18.421875 Z M 22.25 24.753906 C 22.71875 25.027344 22.742188 25.199219 22.59375 28.042969 C 22.472656 30.734375 22.59375 34.074219 23.089844 42.523438 L 23.261719 45.292969 L 22.445312 45.589844 C 20.523438 46.265625 18.402344 45.492188 17.414062 43.796875 C 16.898438 42.921875 16.773438 42.199219 16.550781 39.410156 C 16.253906 35.671875 16.230469 31.359375 16.476562 28.242188 C 16.625 26.472656 16.75 26.074219 17.292969 25.523438 C 18.550781 24.277344 20.84375 23.90625 22.25 24.753906 Z M 22.25 24.753906 "/>
</g>
</svg>
