<?xml version="1.0" encoding="iso-8859-1"?>
<!-- Generator: Adobe Illustrator 16.0.0, SVG Export Plug-In . SVG Version: 6.00 Build 0)  -->
<!DOCTYPE svg PUBLIC "-//W3C//DTD SVG 1.1//EN" "http://www.w3.org/Graphics/SVG/1.1/DTD/svg11.dtd">
<svg version="1.1" id="Capa_1" xmlns="http://www.w3.org/2000/svg" xmlns:xlink="http://www.w3.org/1999/xlink" x="0px" y="0px"
	 width="575.401px" height="575.402px" viewBox="0 0 575.401 575.402" style="enable-background:new 0 0 575.401 575.402;"
	 xml:space="preserve">
<g>
	<g>
		<path d="M534.166,180.916c-2.326-11.044-23.832-26.157-34.876-30.804c0,0-2.905-7.556-9.882-10.461
			c-6.977-2.905-15.696-31.387-15.112,3.488c0,0-19.181-9.881-28.482-9.881c0,0-7.557,13.37,0,27.899c0,0-13.37,5.814-34.293,15.691
			c-20.926,9.882-66.843,8.14-113.342-10.461c-46.5-18.601-97.651-19.764-127.292,5.814c0,0-41.849,9.882-52.894,23.252
			c-11.044,13.37-73.819,30.225-99.393-16.275c-25.574-46.5-20.343,18.017-10.461,32.55c9.882,14.533,44.174,79.05,134.848,18.601
			c0,0,6.394,38.364,36.039,49.988c29.646,11.624,29.646,48.825,27.32,56.961s2.905,40.686,0,49.988
			c-2.905,9.299,19.18,25.573,24.411,55.219c0,0-0.579,15.691,13.37,0c0,0,2.905,6.394,11.624,2.325c0,0,13.37,6.394,15.692-5.813
			c2.325-12.207,2.325-16.275-10.461-24.994s-43.595-47.662-19.764-68.589c23.832-20.927,28.483-26.157,28.483-53.477
			c0,0,44.174,9.882,51.731,28.482c0,0-3.489,31.388-5.23,36.618c-1.742,5.23-41.85,7.556-52.894,35.455c0,0,0.58,6.977,5.814,6.394
			c0,0,2.326,11.044,8.136,6.977c5.81-4.067,24.994-18.601,44.758-18.018c19.764,0.58,17.438-16.274,20.927-22.089
			c3.488-5.813,9.298-22.668,9.298-24.994c0,0,15.691,17.438,14.533,26.736c-1.163,9.298-6.977,8.14-13.37,9.298
			c-6.394,1.159-20.927,12.787-18.601,18.018c0,0-12.787,15.112-4.651,15.112s30.804-6.977,38.943-14.532
			c8.136-7.557,26.736-7.557,25.573-24.411c-1.162-16.854-3.488-36.039-3.488-36.039s65.68-30.804,87.186-61.028
			s29.646-38.364,50.567-33.129c20.923,5.234,24.411-1.742,24.411-1.742s26.156-15.112,21.506-27.32
			C574.855,211.72,536.491,191.957,534.166,180.916z"/>
	</g>
</g>
<g>
</g>
<g>
</g>
<g>
</g>
<g>
</g>
<g>
</g>
<g>
</g>
<g>
</g>
<g>
</g>
<g>
</g>
<g>
</g>
<g>
</g>
<g>
</g>
<g>
</g>
<g>
</g>
<g>
</g>
</svg>
