<?xml version="1.0" encoding="UTF-8"?>
<svg xmlns="http://www.w3.org/2000/svg" xmlns:xlink="http://www.w3.org/1999/xlink" width="373px" height="373px" viewBox="0 0 210 210" version="1.1">
<g id="surface1">
<path style=" stroke:none;fill-rule:nonzero;fill:rgb(0%,0%,0%);fill-opacity:1;" d="M 8.25 8.023438 C 8.25 8.175781 8.25 22.800781 8.25 40.574219 L 8.175781 72.824219 L 40.273438 72.75 C 57.898438 72.75 72.375 72.601562 72.523438 72.523438 C 72.601562 72.375 72.75 57.898438 72.75 40.273438 L 72.824219 8.175781 L 40.574219 8.023438 C 22.800781 7.949219 8.25 7.949219 8.25 8.023438 Z M 70.5 40.5 L 70.5 70.5 L 10.5 70.5 L 10.5 41.023438 C 10.5 24.75 10.726562 11.25 11.023438 11.023438 C 11.25 10.726562 24.75 10.5 41.023438 10.5 L 70.5 10.5 Z M 70.5 40.5 "/>
<path style=" stroke:none;fill-rule:nonzero;fill:rgb(0%,0%,0%);fill-opacity:1;" d="M 138.300781 8.175781 C 138.148438 8.324219 138 22.949219 138 40.648438 L 138 72.75 L 169.5 72.824219 C 186.824219 72.898438 201.375 72.976562 201.75 73.050781 C 202.351562 73.125 202.574219 62.773438 202.574219 40.648438 L 202.574219 8.175781 L 170.625 8.023438 C 153 7.949219 138.449219 8.023438 138.300781 8.175781 Z M 200.25 40.5 L 200.25 70.5 L 170.476562 70.351562 L 140.625 70.125 L 140.398438 41.25 C 140.324219 25.351562 140.398438 11.925781 140.625 11.476562 C 140.851562 10.726562 147.523438 10.5 170.625 10.5 L 200.25 10.5 Z M 200.25 40.5 "/>
<path style=" stroke:none;fill-rule:nonzero;fill:rgb(0%,0%,0%);fill-opacity:1;" d="M 73.050781 73.800781 C 72.824219 74.398438 72.75 81.898438 72.898438 90.375 L 73.125 105.824219 L 56.773438 105.601562 L 40.5 105.375 L 40.5 202.875 L 56.699219 202.726562 L 72.898438 202.648438 L 72.824219 186.449219 L 72.675781 170.25 L 138 170.25 L 138 202.875 L 154.125 202.726562 L 170.25 202.648438 L 170.25 105.601562 L 154.050781 105.523438 L 137.851562 105.375 L 137.773438 89.25 L 137.625 73.125 L 105.523438 72.898438 C 77.925781 72.75 73.425781 72.898438 73.050781 73.800781 Z M 135.148438 90.824219 C 135.375 104.699219 135.523438 105.976562 136.800781 106.949219 C 138 107.773438 141.523438 108 153.148438 108 L 168 108 L 168 200.25 L 140.25 200.25 L 140.25 185.023438 C 140.25 174.148438 140.023438 169.574219 139.351562 168.898438 C 138.675781 168.226562 130.050781 168 105.226562 168 C 73.199219 168 72 168.074219 71.25 169.425781 C 70.800781 170.324219 70.5 176.925781 70.5 185.625 L 70.5 200.25 L 56.851562 200.101562 L 43.125 199.875 L 43.125 108.375 L 58.125 108.148438 C 72.375 108 73.199219 107.925781 74.476562 106.425781 C 75.601562 105 75.75 103.050781 75.75 90.300781 L 75.75 75.75 L 134.851562 75.75 Z M 135.148438 90.824219 "/>
</g>
</svg>
