<svg width="385.613" height="26.925" viewBox="0 0 385.613 26.925" xmlns="http://www.w3.org/2000/svg"><g id="svgGroup" stroke-linecap="round" fill-rule="evenodd" font-size="9pt" stroke="#000" stroke-width="0.25mm" fill="#000" style="stroke:#000;stroke-width:0.25mm;fill:#000"><path d="M 115.462 17.738 L 115.462 9.113 A 12.231 12.231 0 0 1 115.708 6.609 A 9.52 9.52 0 0 1 116.475 4.35 A 8.01 8.01 0 0 1 118.127 2.062 A 7.421 7.421 0 0 1 119.306 1.144 A 7.487 7.487 0 0 1 122.754 0.029 A 9.26 9.26 0 0 1 123.487 0 L 127.462 0 Q 129.75 0 131.494 0.957 Q 133.237 1.913 134.194 3.657 Q 135.15 5.4 135.15 7.688 L 133.837 7.688 Q 133.837 4.8 132.075 3.019 A 5.923 5.923 0 0 0 128.514 1.303 A 8.21 8.21 0 0 0 127.462 1.238 L 123.487 1.238 A 6.875 6.875 0 0 0 121.454 1.529 A 5.961 5.961 0 0 0 119.981 2.213 A 6.178 6.178 0 0 0 117.912 4.445 A 7.636 7.636 0 0 0 117.637 4.988 A 8.95 8.95 0 0 0 116.929 7.443 A 11.604 11.604 0 0 0 116.812 9.113 L 116.812 17.738 A 11.175 11.175 0 0 0 117.019 19.932 A 8.724 8.724 0 0 0 117.638 21.863 A 7.061 7.061 0 0 0 118.695 23.537 A 5.97 5.97 0 0 0 119.944 24.638 A 5.949 5.949 0 0 0 122.983 25.604 A 7.275 7.275 0 0 0 123.337 25.613 L 127.387 25.613 A 7.568 7.568 0 0 0 129.551 25.318 A 5.891 5.891 0 0 0 132.206 23.682 A 6.528 6.528 0 0 0 133.847 20.432 A 9.375 9.375 0 0 0 134.025 18.563 L 134.025 14.775 L 126.412 14.775 L 126.412 13.538 L 135.337 13.538 L 135.337 18.563 A 10.446 10.446 0 0 1 135.097 20.854 A 8.215 8.215 0 0 1 134.344 22.913 A 7.114 7.114 0 0 1 131.55 25.819 A 7.765 7.765 0 0 1 128.672 26.769 A 9.841 9.841 0 0 1 127.388 26.85 L 123.337 26.85 A 8.037 8.037 0 0 1 120.829 26.469 A 7.125 7.125 0 0 1 119.212 25.707 A 7.422 7.422 0 0 1 116.571 22.77 A 8.957 8.957 0 0 1 116.438 22.5 A 10.023 10.023 0 0 1 115.6 19.673 A 13.165 13.165 0 0 1 115.463 17.738 Z M 319.95 19.8 L 321.263 19.8 A 8.037 8.037 0 0 0 321.44 21.541 Q 321.698 22.706 322.333 23.57 A 4.769 4.769 0 0 0 322.763 24.075 A 4.954 4.954 0 0 0 325.321 25.455 A 7.366 7.366 0 0 0 326.887 25.613 L 331.125 25.613 A 8.722 8.722 0 0 0 332.805 25.46 Q 333.822 25.261 334.624 24.799 A 4.985 4.985 0 0 0 335.175 24.432 Q 336.675 23.279 336.712 21.394 A 4.876 4.876 0 0 0 336.713 21.3 L 336.713 18.638 A 3.801 3.801 0 0 0 336.366 17.005 A 3.751 3.751 0 0 0 335.588 15.919 A 4.738 4.738 0 0 0 334.138 14.961 Q 333.528 14.695 332.787 14.541 A 8.859 8.859 0 0 0 332.437 14.475 L 325.8 13.35 A 9.69 9.69 0 0 1 324.018 12.873 Q 322.939 12.463 322.139 11.807 A 5.715 5.715 0 0 1 321.75 11.457 A 4.85 4.85 0 0 1 320.289 7.973 A 6.368 6.368 0 0 1 320.288 7.838 L 320.287 5.475 A 5.325 5.325 0 0 1 320.643 3.496 A 4.842 4.842 0 0 1 322.144 1.5 Q 323.95 0.041 326.839 0.001 A 11.818 11.818 0 0 1 327 0 L 331.237 0 A 7.758 7.758 0 0 1 333.317 0.265 A 5.792 5.792 0 0 1 335.888 1.744 A 5.84 5.84 0 0 1 337.55 5.064 A 8.265 8.265 0 0 1 337.65 6.375 L 336.338 6.375 A 6.237 6.237 0 0 0 336.131 4.73 A 4.612 4.612 0 0 0 334.931 2.644 A 4.728 4.728 0 0 0 332.196 1.305 A 6.595 6.595 0 0 0 331.237 1.238 L 327 1.238 A 8.297 8.297 0 0 0 325.382 1.386 Q 324.417 1.578 323.66 2.018 A 4.673 4.673 0 0 0 323.1 2.4 A 3.69 3.69 0 0 0 321.655 5.066 A 4.702 4.702 0 0 0 321.637 5.475 L 321.638 7.838 A 4.292 4.292 0 0 0 321.857 9.237 A 3.662 3.662 0 0 0 322.725 10.632 A 4.556 4.556 0 0 0 324.159 11.601 Q 324.748 11.86 325.463 12.011 A 8.522 8.522 0 0 0 325.8 12.075 L 332.438 13.2 A 10.136 10.136 0 0 1 334.251 13.671 Q 335.65 14.186 336.581 15.094 A 4.745 4.745 0 0 1 338.062 18.54 A 5.89 5.89 0 0 1 338.062 18.638 L 338.063 21.3 A 5.33 5.33 0 0 1 337.696 23.309 A 4.908 4.908 0 0 1 336.15 25.332 Q 334.338 26.77 331.45 26.846 A 12.375 12.375 0 0 1 331.125 26.85 L 326.888 26.85 A 9.157 9.157 0 0 1 324.813 26.629 Q 323.107 26.232 321.941 25.126 A 5.872 5.872 0 0 1 321.787 24.975 Q 319.95 23.1 319.95 19.8 Z M 298.875 25.088 L 298.875 0.3 L 315.075 0.3 L 315.075 1.538 L 300.225 1.538 L 300.225 12.525 L 313.95 12.525 L 313.95 13.763 L 300.225 13.763 L 300.225 25.313 L 315.075 25.313 L 315.075 26.55 L 300.225 26.55 A 1.746 1.746 0 0 1 299.82 26.506 A 1.164 1.164 0 0 1 299.231 26.175 A 1.203 1.203 0 0 1 298.959 25.699 Q 298.875 25.433 298.875 25.088 Z M 211.65 26.55 L 211.65 0.3 L 213 0.3 L 213 12.675 L 228.788 12.675 L 228.788 0.3 L 230.138 0.3 L 230.138 26.55 L 228.788 26.55 L 228.788 13.913 L 213 13.913 L 213 26.55 L 211.65 26.55 Z M 282.75 25.613 L 273.562 0.3 L 274.987 0.3 L 283.838 24.788 L 283.875 24.788 L 292.725 0.3 L 294.15 0.3 L 284.55 26.55 L 283.987 26.55 A 1.312 1.312 0 0 1 283.427 26.436 Q 283.114 26.29 282.913 25.959 A 1.905 1.905 0 0 1 282.75 25.613 Z M 92.512 26.55 L 92.512 0.3 L 104.512 0.3 Q 107.062 0.3 108.637 1.744 A 4.783 4.783 0 0 1 110.199 5.085 A 6.516 6.516 0 0 1 110.212 5.513 L 110.212 8.588 Q 110.212 10.613 108.937 12.113 A 5.908 5.908 0 0 1 106.265 13.892 A 7.584 7.584 0 0 1 105.525 14.1 L 105.525 14.138 A 4.486 4.486 0 0 1 106.714 14.96 Q 107.132 15.357 107.507 15.885 A 7.55 7.55 0 0 1 107.531 15.919 Q 108.412 17.175 108.9 18.975 L 111.037 26.55 L 109.687 26.55 L 107.512 18.975 A 9.031 9.031 0 0 0 106.883 17.393 Q 106.342 16.35 105.562 15.638 Q 104.25 14.438 102.525 14.438 L 93.862 14.438 L 93.862 26.55 L 92.512 26.55 Z M 141.337 26.55 L 141.337 0.3 L 153.337 0.3 Q 155.888 0.3 157.462 1.744 A 4.783 4.783 0 0 1 159.024 5.085 A 6.516 6.516 0 0 1 159.037 5.513 L 159.038 8.588 Q 159.038 10.613 157.763 12.113 A 5.908 5.908 0 0 1 155.09 13.892 A 7.584 7.584 0 0 1 154.35 14.1 L 154.35 14.138 A 4.486 4.486 0 0 1 155.539 14.96 Q 155.957 15.357 156.332 15.885 A 7.55 7.55 0 0 1 156.356 15.919 Q 157.237 17.175 157.725 18.975 L 159.862 26.55 L 158.513 26.55 L 156.337 18.975 A 9.031 9.031 0 0 0 155.708 17.393 Q 155.167 16.35 154.388 15.638 Q 153.075 14.438 151.35 14.438 L 142.688 14.438 L 142.688 26.55 L 141.337 26.55 Z M 86.363 26.55 L 83.363 18.563 L 71.175 18.563 L 68.175 26.55 L 66.75 26.55 L 76.688 0.3 L 77.325 0.3 A 0.74 0.74 0 0 1 77.858 0.532 Q 78.066 0.738 78.225 1.125 L 87.788 26.55 L 86.363 26.55 Z M 182.625 26.55 L 179.625 18.563 L 167.437 18.563 L 164.437 26.55 L 163.013 26.55 L 172.95 0.3 L 173.587 0.3 A 0.74 0.74 0 0 1 174.121 0.532 Q 174.329 0.738 174.487 1.125 L 184.05 26.55 L 182.625 26.55 Z M 0 26.55 L 0 0.3 L 11.963 0.3 A 7.962 7.962 0 0 1 13.769 0.494 A 5.442 5.442 0 0 1 16.181 1.707 A 4.631 4.631 0 0 1 17.759 4.975 A 6.397 6.397 0 0 1 17.775 5.438 L 17.775 9.9 A 6.179 6.179 0 0 1 17.493 11.808 A 5.022 5.022 0 0 1 16.069 14.007 A 5.828 5.828 0 0 1 13.218 15.411 A 8.336 8.336 0 0 1 11.587 15.563 L 1.35 15.563 L 1.35 26.55 L 0 26.55 Z M 188.775 26.55 L 188.775 0.3 L 200.737 0.3 A 7.962 7.962 0 0 1 202.544 0.494 A 5.442 5.442 0 0 1 204.956 1.707 A 4.631 4.631 0 0 1 206.534 4.975 A 6.397 6.397 0 0 1 206.55 5.438 L 206.55 9.9 A 6.179 6.179 0 0 1 206.268 11.808 A 5.022 5.022 0 0 1 204.844 14.007 A 5.828 5.828 0 0 1 201.993 15.411 A 8.336 8.336 0 0 1 200.362 15.563 L 190.125 15.563 L 190.125 26.55 L 188.775 26.55 Z M 48.45 25.088 L 48.45 0.3 L 49.8 0.3 L 49.8 25.313 L 64.05 25.313 L 64.05 26.55 L 49.8 26.55 A 1.746 1.746 0 0 1 49.395 26.506 A 1.164 1.164 0 0 1 48.806 26.175 A 1.203 1.203 0 0 1 48.534 25.699 Q 48.45 25.433 48.45 25.088 Z M 246.262 25.088 L 246.262 0.3 L 247.612 0.3 L 247.612 25.313 L 261.862 25.313 L 261.862 26.55 L 247.612 26.55 A 1.746 1.746 0 0 1 247.207 26.506 A 1.164 1.164 0 0 1 246.619 26.175 A 1.203 1.203 0 0 1 246.346 25.699 Q 246.262 25.433 246.262 25.088 Z M 22.125 17.963 L 22.125 8.888 Q 22.125 6.263 23.138 4.238 Q 24.15 2.213 26.006 1.107 A 7.837 7.837 0 0 1 29.118 0.069 A 9.867 9.867 0 0 1 30.3 0 L 34.125 0 A 9.121 9.121 0 0 1 36.484 0.294 A 7.572 7.572 0 0 1 38.419 1.107 Q 40.275 2.213 41.287 4.238 Q 42.3 6.263 42.3 8.888 L 42.3 17.963 A 11.411 11.411 0 0 1 42.042 20.438 A 9.124 9.124 0 0 1 41.269 22.613 A 7.672 7.672 0 0 1 39.258 25.134 A 7.459 7.459 0 0 1 38.381 25.744 A 7.837 7.837 0 0 1 35.27 26.781 A 9.867 9.867 0 0 1 34.088 26.85 L 30.263 26.85 Q 27.825 26.85 25.988 25.744 A 7.42 7.42 0 0 1 23.202 22.738 A 8.842 8.842 0 0 1 23.138 22.613 Q 22.125 20.588 22.125 17.963 Z M 30.263 25.613 L 34.088 25.613 Q 36.113 25.613 37.669 24.657 A 6.381 6.381 0 0 0 39.977 22.171 A 7.65 7.65 0 0 0 40.088 21.957 A 8.268 8.268 0 0 0 40.857 19.385 A 10.563 10.563 0 0 0 40.95 17.963 L 40.95 8.888 A 10.258 10.258 0 0 0 40.739 6.764 A 8.138 8.138 0 0 0 40.106 4.894 A 6.519 6.519 0 0 0 38.651 2.906 A 6.159 6.159 0 0 0 37.706 2.194 A 6.484 6.484 0 0 0 34.868 1.271 A 8.058 8.058 0 0 0 34.125 1.238 L 30.3 1.238 Q 28.275 1.238 26.719 2.194 A 6.283 6.283 0 0 0 24.379 4.772 A 7.542 7.542 0 0 0 24.319 4.894 A 8.378 8.378 0 0 0 23.575 7.401 A 10.742 10.742 0 0 0 23.475 8.888 L 23.475 17.963 A 10.42 10.42 0 0 0 23.733 20.349 A 7.162 7.162 0 0 0 25.331 23.513 A 6.113 6.113 0 0 0 29.604 25.588 A 8.453 8.453 0 0 0 30.262 25.613 Z M 267.112 26.55 L 267.112 0.3 L 268.463 0.3 L 268.463 26.55 L 267.112 26.55 Z M 1.35 14.325 L 11.588 14.325 A 6.325 6.325 0 0 0 13.1 14.154 A 4.483 4.483 0 0 0 15.094 13.107 A 4.038 4.038 0 0 0 16.407 10.356 A 5.555 5.555 0 0 0 16.425 9.9 L 16.425 5.438 Q 16.425 3.675 15.188 2.607 Q 13.95 1.538 11.963 1.538 L 1.35 1.538 L 1.35 14.325 Z M 190.125 14.325 L 200.362 14.325 A 6.325 6.325 0 0 0 201.875 14.154 A 4.483 4.483 0 0 0 203.869 13.107 A 4.038 4.038 0 0 0 205.182 10.356 A 5.555 5.555 0 0 0 205.2 9.9 L 205.2 5.438 Q 205.2 3.675 203.962 2.607 Q 202.725 1.538 200.737 1.538 L 190.125 1.538 L 190.125 14.325 Z M 93.862 13.2 L 103.575 13.2 A 7.465 7.465 0 0 0 105.176 13.038 Q 106.309 12.79 107.151 12.16 A 4.627 4.627 0 0 0 107.419 11.944 Q 108.862 10.688 108.862 8.588 L 108.862 5.513 A 4.438 4.438 0 0 0 108.675 4.192 A 3.509 3.509 0 0 0 107.681 2.625 A 3.988 3.988 0 0 0 105.837 1.678 A 5.899 5.899 0 0 0 104.512 1.538 L 93.862 1.538 L 93.862 13.2 Z M 142.688 13.2 L 152.4 13.2 A 7.465 7.465 0 0 0 154.001 13.038 Q 155.134 12.79 155.976 12.16 A 4.627 4.627 0 0 0 156.244 11.944 Q 157.688 10.688 157.688 8.588 L 157.688 5.513 A 4.438 4.438 0 0 0 157.5 4.192 A 3.509 3.509 0 0 0 156.506 2.625 A 3.988 3.988 0 0 0 154.662 1.678 A 5.899 5.899 0 0 0 153.337 1.538 L 142.688 1.538 L 142.688 13.2 Z M 344.588 21 L 344.588 0.3 L 345.938 0.3 L 345.938 21 L 344.588 21 Z M 354.338 21 L 354.338 0.3 L 355.688 0.3 L 355.688 21 L 354.338 21 Z M 364.088 21 L 364.088 0.3 L 365.438 0.3 L 365.438 21 L 364.088 21 Z M 373.838 21 L 373.838 0.3 L 375.188 0.3 L 375.188 21 L 373.838 21 Z M 383.588 21 L 383.588 0.3 L 384.938 0.3 L 384.938 21 L 383.588 21 Z M 77.288 2.25 L 71.625 17.325 L 82.913 17.325 L 77.325 2.25 L 77.288 2.25 Z M 173.55 2.25 L 167.888 17.325 L 179.175 17.325 L 173.587 2.25 L 173.55 2.25 Z M 345.263 26.925 Q 344.662 26.925 344.287 26.55 A 1.263 1.263 0 0 1 343.926 25.792 A 1.735 1.735 0 0 1 343.913 25.575 A 1.746 1.746 0 0 1 343.957 25.17 A 1.164 1.164 0 0 1 344.287 24.582 A 1.276 1.276 0 0 1 344.985 24.246 A 1.775 1.775 0 0 1 345.263 24.225 Q 345.813 24.225 346.154 24.491 A 1.109 1.109 0 0 1 346.256 24.582 A 1.17 1.17 0 0 1 346.562 25.136 Q 346.613 25.336 346.613 25.575 A 1.646 1.646 0 0 1 346.556 26.018 A 1.245 1.245 0 0 1 346.256 26.55 Q 345.9 26.925 345.263 26.925 Z M 355.013 26.925 Q 354.412 26.925 354.037 26.55 A 1.263 1.263 0 0 1 353.676 25.792 A 1.735 1.735 0 0 1 353.663 25.575 A 1.746 1.746 0 0 1 353.707 25.17 A 1.164 1.164 0 0 1 354.037 24.582 A 1.276 1.276 0 0 1 354.735 24.246 A 1.775 1.775 0 0 1 355.013 24.225 Q 355.563 24.225 355.904 24.491 A 1.109 1.109 0 0 1 356.006 24.582 A 1.17 1.17 0 0 1 356.312 25.136 Q 356.363 25.336 356.363 25.575 A 1.646 1.646 0 0 1 356.306 26.018 A 1.245 1.245 0 0 1 356.006 26.55 Q 355.65 26.925 355.013 26.925 Z M 364.763 26.925 Q 364.162 26.925 363.787 26.55 A 1.263 1.263 0 0 1 363.426 25.792 A 1.735 1.735 0 0 1 363.413 25.575 A 1.746 1.746 0 0 1 363.457 25.17 A 1.164 1.164 0 0 1 363.787 24.582 A 1.276 1.276 0 0 1 364.485 24.246 A 1.775 1.775 0 0 1 364.763 24.225 Q 365.313 24.225 365.654 24.491 A 1.109 1.109 0 0 1 365.756 24.582 A 1.17 1.17 0 0 1 366.062 25.136 Q 366.113 25.336 366.113 25.575 A 1.646 1.646 0 0 1 366.056 26.018 A 1.245 1.245 0 0 1 365.756 26.55 Q 365.4 26.925 364.763 26.925 Z M 374.513 26.925 Q 373.912 26.925 373.537 26.55 A 1.263 1.263 0 0 1 373.176 25.792 A 1.735 1.735 0 0 1 373.163 25.575 A 1.746 1.746 0 0 1 373.207 25.17 A 1.164 1.164 0 0 1 373.537 24.582 A 1.276 1.276 0 0 1 374.235 24.246 A 1.775 1.775 0 0 1 374.513 24.225 Q 375.063 24.225 375.404 24.491 A 1.109 1.109 0 0 1 375.506 24.582 A 1.17 1.17 0 0 1 375.812 25.136 Q 375.863 25.336 375.863 25.575 A 1.646 1.646 0 0 1 375.806 26.018 A 1.245 1.245 0 0 1 375.506 26.55 Q 375.15 26.925 374.513 26.925 Z M 384.263 26.925 Q 383.662 26.925 383.287 26.55 A 1.263 1.263 0 0 1 382.926 25.792 A 1.735 1.735 0 0 1 382.913 25.575 A 1.746 1.746 0 0 1 382.957 25.17 A 1.164 1.164 0 0 1 383.287 24.582 A 1.276 1.276 0 0 1 383.985 24.246 A 1.775 1.775 0 0 1 384.263 24.225 Q 384.813 24.225 385.154 24.491 A 1.109 1.109 0 0 1 385.256 24.582 A 1.17 1.17 0 0 1 385.562 25.136 Q 385.613 25.336 385.613 25.575 A 1.646 1.646 0 0 1 385.556 26.018 A 1.245 1.245 0 0 1 385.256 26.55 Q 384.9 26.925 384.263 26.925 Z" vector-effect="non-scaling-stroke"/></g></svg>